<svg xmlns="http://www.w3.org/2000/svg" viewBox="0 0 248 248"><defs><style>.cls-1{fill:#970a82;}.cls-2,.cls-3,.cls-4{fill:#f0ab00;}.cls-3{opacity:0.7;}.cls-4{opacity:0.4;}</style></defs><title>283370-pictogram</title><g id="outlines_--_combound_path" data-name="outlines -- combound path"><path d="M125,221c-46,0-83.5-35.74-83.5-79.66C41.5,98,77.88,62.71,123,61.7V55h4.51v6.71c44.88,1.27,81,36.5,81,79.63a76.55,76.55,0,0,1-17,48.17l-.09,28-17.23-11.82A85.45,85.45,0,0,1,125,221Zm0-155.33c-43.84,0-79.5,33.94-79.5,75.66S81.16,217,125,217a81.43,81.43,0,0,0,48-15.34l1.14-.82,13.3,9.13.07-21.87.45-.55a72.64,72.64,0,0,0,16.54-46.2C204.5,99.62,168.84,65.67,125,65.67ZM87.5,138a10,10,0,1,0,8-9.8A10,10,0,0,0,87.5,138Zm55,0a10,10,0,1,0,10-10A10,10,0,0,0,142.5,138Z"/></g><g id="color_band" data-name="color band"><path class="cls-1" d="M155.5,107.39a32.23,32.23,0,0,0-5-.39h-53c-.67,0-1.34,0-2,.07V107A32.1,32.1,0,0,0,68,126.53v0q-.28.67-.54,1.36l0,.13c-.15.42-.3.85-.43,1.28l-.07.22c-.12.4-.24.81-.35,1.22l-.09.31c-.1.38-.18.77-.27,1.16,0,.13-.06.26-.09.39-.07.37-.14.74-.2,1.12,0,.15-.05.3-.08.45-.05.37-.1.74-.14,1.1,0,.16,0,.32-.06.48,0,.38-.06.77-.09,1.15,0,.15,0,.3,0,.45q0,.8,0,1.62t0,1.62c0,.15,0,.3,0,.45,0,.38,0,.77.09,1.15,0,.16,0,.32.06.48,0,.37.09.74.14,1.1,0,.15.05.3.08.45.06.37.13.75.2,1.12,0,.13.06.26.09.39.08.39.17.78.27,1.16l.09.31c.11.41.22.81.35,1.22l.07.22c.14.43.28.86.43,1.28l0,.13q.25.69.54,1.36v0A32.1,32.1,0,0,0,95.5,171v-.09c.66,0,1.33.07,2,.07h53a32,32,0,0,0,5-63.61ZM97.5,148a10,10,0,1,1,10-10A10,10,0,0,1,97.5,148Zm58-.46a10,10,0,1,1,7-9.54A10,10,0,0,1,155.5,147.54ZM113.5,39a12,12,0,1,1,12,12A12,12,0,0,1,113.5,39Z"/></g><g id="_100_band" data-name="100% band"><path class="cls-2" d="M95.5,147.8a10,10,0,0,1,0-19.6V107A32.1,32.1,0,0,0,68,126.53v0q-.28.67-.54,1.36l0,.13c-.15.42-.3.85-.43,1.28l-.07.22c-.12.4-.24.81-.35,1.22l-.09.31c-.1.38-.18.77-.27,1.16,0,.13-.06.26-.09.39-.07.37-.14.74-.2,1.12,0,.15-.05.3-.08.45-.05.37-.1.74-.14,1.1,0,.16,0,.32-.06.48,0,.38-.06.77-.09,1.15,0,.15,0,.3,0,.45q0,.8,0,1.62t0,1.62c0,.15,0,.3,0,.45,0,.38,0,.77.09,1.15,0,.16,0,.32.06.48,0,.37.09.74.14,1.1,0,.15.05.3.08.45.06.37.13.75.2,1.12,0,.13.06.26.09.39.08.39.17.78.27,1.16l.09.31c.11.41.22.81.35,1.22l.07.22c.14.43.28.86.43,1.28l0,.13q.25.69.54,1.36v0A32.1,32.1,0,0,0,95.5,171V147.8Z"/></g><g id="_70_band" data-name="70% band"><path class="cls-3" d="M97.5,107c-.67,0-1.34,0-2,.07V128.2a10,10,0,1,1,0,19.6v23.13c.66,0,1.33.07,2,.07h28V107Z"/></g><g id="_40_band" data-name="40% band"><path class="cls-4" d="M152.5,148a10,10,0,1,1,3-19.54V107.39a32.23,32.23,0,0,0-5-.39h-25v64h25a32.23,32.23,0,0,0,5-.39V147.54A10,10,0,0,1,152.5,148Z"/></g></svg>